<svg xmlns="http://www.w3.org/2000/svg" viewBox="0 0 30 28.244"><path d="M8.104.002C5.817.058 4.038.806 2.767 2.246 1.497 3.686.917 5.428 1.03 7.471c.113 2.043 1.13 3.591 3.05 4.646 1.92 1.054 3.926 1.03 6.016-.071.235-.123.315-.278.24-.466-.095-.16-.274-.184-.537-.07-1.723.762-3.347.8-4.872.112-1.525-.687-2.386-1.85-2.583-3.488-.189-1.638.131-2.899.96-3.784.837-.894 1.948-1.383 3.332-1.468a3.94 3.94 0 0 1 1.92.367 6.28 6.28 0 0 1 1.667 1.087C11.399 5.42 12.57 5.96 13.738 5.96c.132-.01.212.038.24.141.029.104-.004.193-.098.269-1.553 1.299-2.387 2.532-2.5 3.7-.113 1.166.701 3.28 2.443 6.339 1.75 3.06 2.462 5.23 2.132 6.51-.33 1.28-.847 2.259-1.553 2.936-.734.669-1.6.923-2.598.762-.998-.16-2.118-.926-3.36-2.3-2.712-2.975-5.48-3.023-8.303-.142-.16.16-.184.306-.07.437.122.142.324.133.606-.027.932-.594 1.718-.608 2.358-.043.64.574 1.337 1.2 2.09 1.878 1.553 1.374 3.21 1.972 4.97 1.793 1.77-.17 3.394-.786 4.872-1.85 2.465-1.814 3.557-4.92 3.59-6.793v-.017c.025-1.815-.56-3.55-1.167-5.236-.388-1.176-.68-1.862-.661-2.935.018-1.082.41-1.878 1.172-2.386.753-.509 1.53-.598 2.33-.269.8.32 1.393.984 1.779 1.991.48 1.28 1.026 2.076 1.638 2.387.103.047.15.117.141.211 0 .085-.042.15-.127.198l-4.024 2.203c-.226.122-.302.269-.226.438.075.17.244.206.508.112.546-.226 1.04-.103 1.482.368.443.46.796 1.125 1.06 1.99.376 1.243.847 2.34 1.412 3.291a7.062 7.062 0 0 0 2.188 2.315c.085.047.17.047.254 0l3.361-2.16c.292-.179.386-.353.282-.522-.094-.17-.292-.189-.593-.057-1.11.405-2-.259-2.668-1.99-.509-1.3-1.003-2.383-1.483-3.249-.48-.866-.983-1.44-1.51-1.723-.104-.047-.156-.112-.156-.197 0-.084.047-.155.141-.211l3.333-1.907c.216-.113.296-.25.24-.41-.047-.16-.18-.22-.396-.182-.282.037-.537-.194-.763-.693a38.056 38.056 0 0 0-.945-2.005c-.537-1.054-1.43-1.812-2.683-2.273-1.252-.461-2.462-.414-3.63.141-1.157.556-1.91 1.304-2.258 2.245-.339.942-.466 1.836-.381 2.683.01.132-.043.22-.156.268-.113.028-.202-.014-.268-.127-1.214-1.892-1.234-3.7-.057-5.422 1.177-1.723 3.032-2.598 5.564-2.626 2.062.075 3.728.8 4.998 2.174 1.271 1.365 1.935 2.918 1.991 4.66.029 1.017-.084 1.85-.339 2.5-.244.649-.847 1.27-1.807 1.863-.254.141-.33.301-.226.48.104.179.301.193.593.042a8.038 8.038 0 0 0 2.415-1.948c.659-.8.974-1.728.946-2.782-.076-2.118-.899-3.916-2.47-5.394-1.573-1.487-3.598-2.221-6.073-2.202-1.333.019-2.735.145-3.968.692-.744.32-1.47.225-2.157-.255-.678-.49-1.492-1.162-2.443-2.019-.395-.339-1.045-.697-1.949-1.073a6.41 6.41 0 0 0-2.697-.55Z"/></g></svg>
