<?xml version="1.0" standalone="no"?>
<!DOCTYPE svg PUBLIC "-//W3C//DTD SVG 20010904//EN"
 "http://www.w3.org/TR/2001/REC-SVG-20010904/DTD/svg10.dtd">
<svg version="1.0" xmlns="http://www.w3.org/2000/svg"
 width="512.000000pt" height="512.000000pt" viewBox="0 0 512.000000 512.000000"
 preserveAspectRatio="xMidYMid meet">

<g transform="translate(0.000000,512.000000) scale(0.100000,-0.100000)"
fill="#000000" stroke="none">
<path d="M1760 4720 l0 -80 -160 0 -160 0 0 -80 0 -80 -80 0 -80 0 0 -80 0
-80 -80 0 -80 0 0 -160 0 -160 -80 0 -80 0 0 -320 0 -320 80 0 80 0 0 -320 0
-320 80 0 80 0 0 -880 0 -880 -160 0 -160 0 0 -80 0 -80 -80 0 -80 0 0 -400 0
-400 80 0 80 0 0 400 0 400 240 0 240 0 0 -80 0 -80 80 0 80 0 0 -80 0 -80 80
0 80 0 0 -240 0 -240 80 0 80 0 0 240 0 240 80 0 80 0 0 80 0 80 80 0 80 0 0
80 0 80 240 0 240 0 0 -400 0 -400 80 0 80 0 0 400 0 400 -80 0 -80 0 0 80 0
80 -160 0 -160 0 0 80 0 80 480 0 480 0 0 80 0 80 80 0 80 0 0 80 0 80 80 0
80 0 0 80 0 80 80 0 80 0 0 560 0 560 80 0 80 0 0 320 0 320 -80 0 -80 0 0
160 0 160 80 0 80 0 0 80 0 80 80 0 80 0 0 160 0 160 -80 0 -80 0 0 160 0 160
-80 0 -80 0 0 80 0 80 -160 0 -160 0 0 80 0 80 -640 0 -640 0 0 -80 0 -80 -80
0 -80 0 0 80 0 80 -160 0 -160 0 0 -80z m800 -960 l0 -80 560 0 560 0 0 -80 0
-80 -1040 0 -1040 0 0 80 0 80 240 0 240 0 0 80 0 80 240 0 240 0 0 -80z
m1280 -720 l0 -320 -80 0 -80 0 0 -80 0 -80 -320 0 -320 0 0 -80 0 -80 320 0
320 0 0 -400 0 -400 -80 0 -80 0 0 -80 0 -80 -80 0 -80 0 0 -80 0 -80 -560 0
-560 0 0 -240 0 -240 -80 0 -80 0 0 -80 0 -80 -80 0 -80 0 0 -80 0 -80 -80 0
-80 0 0 80 0 80 -80 0 -80 0 0 80 0 80 -80 0 -80 0 0 960 0 960 80 0 80 0 0
320 0 320 1120 0 1120 0 0 -320z m-2400 0 l0 -160 -80 0 -80 0 0 160 0 160 80
0 80 0 0 -160z"/>
<path d="M2720 2800 l0 -80 -80 0 -80 0 0 -80 0 -80 -400 0 -400 0 0 80 0 80
-80 0 -80 0 0 -80 0 -80 80 0 80 0 0 -80 0 -80 400 0 400 0 0 80 0 80 80 0 80
0 0 80 0 80 80 0 80 0 0 -80 0 -80 80 0 80 0 0 80 0 80 -80 0 -80 0 0 80 0 80
-80 0 -80 0 0 -80z"/>
<path d="M2400 1840 l0 -80 320 0 320 0 0 80 0 80 -320 0 -320 0 0 -80z"/>
<path d="M2240 240 l0 -80 160 0 160 0 0 80 0 80 -160 0 -160 0 0 -80z"/>
</g>
</svg>
