<!-- <?xml version="1.0" encoding="UTF-8" standalone="no"?> -->
<!-- Created with Inkscape (http://www.inkscape.org/) -->

<svg
   width="30.000051mm"
   height="28.243927mm"
   viewBox="0 0 30.000051 28.243927"
   version="1.1"
   id="svg1"
   inkscape:version="1.4 (e7c3feb1, 2024-10-09)"
   sodipodi:docname="jk-logo.svg"
   xmlns:inkscape="http://www.inkscape.org/namespaces/inkscape"
   xmlns:sodipodi="http://sodipodi.sourceforge.net/DTD/sodipodi-0.dtd"
   xmlns="http://www.w3.org/2000/svg"
   xmlns:svg="http://www.w3.org/2000/svg">
  <sodipodi:namedview
     id="namedview1"
     pagecolor="#ffffff"
     bordercolor="#000000"
     borderopacity="0.25"
     inkscape:showpageshadow="2"
     inkscape:pageopacity="0.0"
     inkscape:pagecheckerboard="false"
     inkscape:deskcolor="#d1d1d1"
     inkscape:document-units="mm"
     inkscape:zoom="5.5034302"
     inkscape:cx="50.513951"
     inkscape:cy="34.069661"
     inkscape:window-width="1456"
     inkscape:window-height="874"
     inkscape:window-x="7"
     inkscape:window-y="46"
     inkscape:window-maximized="0"
     inkscape:current-layer="layer1" />
  <defs
     id="defs1" />
  <g
     inkscape:label="Ebene 1"
     inkscape:groupmode="layer"
     id="layer1"
     style="display:inline"
     transform="translate(-4.7721591e-5,-2.3454746e-4)">
    <path
       d="M 8.1044149,0.00155029 C 5.8169548,0.05803087 4.0380843,0.80612148 2.7672729,2.2463745 1.4964616,3.6866267 0.91746682,5.4281504 1.0304281,7.4708618 c 0.1129611,2.0427114 1.1296067,3.5914092 3.049943,4.6457112 1.9203371,1.054304 3.9253583,1.030576 6.0151369,-0.0708 0.235332,-0.122374 0.315082,-0.277852 0.239778,-0.466121 -0.09413,-0.160027 -0.272825,-0.183241 -0.5364009,-0.07028 C 8.07623,12.271861 6.4523217,12.309209 4.9273478,11.62203 3.4023748,10.93485 2.5412082,9.7723214 2.3435262,8.1343872 2.1552582,6.496453 2.4752936,5.2349833 3.3036743,4.3501221 4.1414681,3.4558485 5.2519982,2.9667164 6.6357707,2.8819946 c 0.6777661,-0.037653 1.3178378,0.084501 1.9202962,0.3669027 0.6118715,0.2729897 1.1676533,0.6354284 1.6665651,1.0872721 1.176677,1.0825425 2.348284,1.6236735 3.515548,1.6236735 0.13179,-0.00941 0.212057,0.038046 0.240295,0.1415935 0.02824,0.1035514 -0.0046,0.1928972 -0.0987,0.2682006 -1.553213,1.2990517 -2.386628,2.5322521 -2.499589,3.699516 -0.112961,1.167264 0.701263,3.280304 2.442745,6.339665 1.750895,3.05936 2.461639,5.229455 2.132169,6.50968 -0.329469,1.280224 -0.84687,2.259006 -1.552876,2.936771 -0.734247,0.668353 -1.60047,0.922255 -2.598291,0.762228 C 10.806106,26.457468 9.6859833,25.690704 8.4434123,24.316345 5.7323488,21.341706 2.9645846,21.294247 0.1405599,24.174752 c -0.16002604,0.160028 -0.18324026,0.305911 -0.07027995,0.437699 0.12237515,0.1412 0.32479604,0.132128 0.60719808,-0.02791 0.93192787,-0.593043 1.71788297,-0.607185 2.35799557,-0.04237 0.6401127,0.574218 1.336722,1.200156 2.089795,1.877922 1.5532133,1.374358 3.2099303,1.972027 4.9702394,1.793172 1.769722,-0.169441 3.393631,-0.785783 4.871537,-1.8495 2.465082,-1.814784 3.55702,-4.921268 3.589445,-6.793383 v -5.17e-4 c 4.55e-4,-0.002 5.77e-4,-0.0022 0.001,-0.0041 -1.41e-4,-0.0037 -3.75e-4,-0.0066 -5.17e-4,-0.01034 -3.6e-5,-9.25e-4 3.5e-5,-0.0017 0,-0.0026 0.02484,-1.815265 -0.559358,-3.549041 -1.167371,-5.235889 -0.387666,-1.176029 -0.679768,-1.861576 -0.660941,-2.934705 0.01883,-1.082543 0.410051,-1.8780925 1.172538,-2.3864177 0.753074,-0.5083239 1.529432,-0.5981869 2.329573,-0.2687174 0.80014,0.3200555 1.39327,0.9838574 1.77922,1.9910931 0.480085,1.280224 1.025755,2.076291 1.637626,2.386934 0.103541,0.04707 0.151006,0.117223 0.141594,0.211357 0,0.08473 -0.0424,0.150338 -0.127124,0.197404 l -4.024044,2.202966 c -0.225922,0.122369 -0.30165,0.268775 -0.226343,0.438216 0.07531,0.169442 0.244404,0.206272 0.507979,0.112138 0.545979,-0.225922 1.040166,-0.103247 1.482597,0.36742 0.44243,0.461257 0.795792,1.125058 1.059367,1.991092 0.376537,1.242572 0.847512,2.339484 1.412317,3.290239 0.564804,0.950755 1.293707,1.722059 2.18798,2.315104 0.08473,0.04707 0.169527,0.04707 0.254248,0 l 3.361035,-2.160075 c 0.291816,-0.178856 0.385701,-0.353008 0.282154,-0.522448 -0.09414,-0.169442 -0.292017,-0.18814 -0.593246,-0.05633 -1.110783,0.404777 -2.000218,-0.259023 -2.668571,-1.991093 -0.508324,-1.299051 -1.002512,-2.381829 -1.482597,-3.247864 -0.480084,-0.866034 -0.983351,-1.440488 -1.510502,-1.722892 -0.103541,-0.04707 -0.155546,-0.112167 -0.155546,-0.196887 0,-0.08473 0.04695,-0.155393 0.141077,-0.211873 l 3.332613,-1.906344 c 0.216509,-0.112955 0.296776,-0.249766 0.240295,-0.409794 C 27.215831,11.64543 27.083568,11.584871 26.86706,11.622524 26.584657,11.660184 26.330238,11.42897 26.104316,10.93006 25.887929,10.421759 25.572861,9.7534173 25.158671,8.9250366 24.622106,7.870734 23.728132,7.1130481 22.476147,6.6517904 21.224164,6.1905326 20.014174,6.2379924 18.846912,6.7933838 17.689061,7.3487764 16.936431,8.096867 16.588135,9.038208 c -0.338884,0.9413423 -0.466093,1.835316 -0.381372,2.682524 0.0094,0.131788 -0.04258,0.221134 -0.155546,0.2682 -0.112956,0.02824 -0.202307,-0.01416 -0.268201,-0.127124 -1.21433,-1.8920964 -1.23353,-3.6992355 -0.05684,-5.421891 1.176677,-1.7226542 3.031792,-2.5979569 5.564001,-2.6261963 2.061538,0.075312 3.727333,0.8001862 4.998145,2.1745443 1.27081,1.3649453 1.934613,2.9181814 1.991093,4.659664 0.02824,1.016649 -0.08484,1.850063 -0.338998,2.499589 -0.244749,0.649526 -0.847472,1.270407 -1.807641,1.863452 -0.254163,0.141201 -0.328857,0.30122 -0.225309,0.480074 0.103554,0.178856 0.300912,0.19301 0.592728,0.04237 0.950755,-0.508324 1.755901,-1.157991 2.41484,-1.948718 0.658939,-0.80014 0.973918,-1.72744 0.945679,-2.781743 C 29.785394,8.6849444 28.9621,6.8873958 27.390059,5.4094889 25.818019,3.9221693 23.79329,3.1876959 21.317562,3.2065226 19.985466,3.2257291 18.583405,3.3521946 17.350087,3.8992646 16.606307,4.21932 15.88005,4.1243061 15.192871,3.644222 14.515105,3.1547248 13.700881,2.4818448 12.750126,1.6252238 12.354763,1.2863412 11.705096,0.9284412 10.801408,0.5519043 9.9071333,0.16595254 9.0081024,-0.01727771 8.1044149,0.00155029 Z"
       style="font-size:22.5778px;font-family:UnifrakturMaguntia;-inkscape-font-specification:'UnifrakturMaguntia, Normal';baseline-shift:baseline;display:inline;overflow:visible;vector-effect:none;enable-background:accumulate;stop-color:#000000;stop-opacity:1"
       id="path65"
       sodipodi:nodetypes="cssscccsccccccscscscscccccccccccsccccccccccscccsccccccscsccccccscccccccccccscccccccccc" />
  </g>
</svg>
